<?xml version="1.0" standalone="no"?><!DOCTYPE svg PUBLIC "-//W3C//DTD SVG 1.1//EN" "http://www.w3.org/Graphics/SVG/1.1/DTD/svg11.dtd"><svg t="1630335954721" class="icon" viewBox="0 0 1024 1024" version="1.1" xmlns="http://www.w3.org/2000/svg" p-id="2531" xmlns:xlink="http://www.w3.org/1999/xlink" width="200" height="200"><defs><style type="text/css"></style></defs><path d="M692.224 942.08H71.68C36.864 942.08 8.192 913.408 8.192 878.592V184.32c0-34.816 28.672-61.44 63.488-61.44h364.544l151.552 266.24h370.688c34.816 0 63.488 28.672 63.488 63.488v169.984h-63.488V450.56h-409.6L399.36 184.32h-327.68v696.32h620.544v61.44z" fill="#8a8a8a" p-id="2532"></path><path d="M770.048 757.76H1024v63.488H770.048z" fill="#8a8a8a" p-id="2533"></path><path d="M866.304 661.504h63.488v253.952h-63.488zM958.464 419.84h-63.488v-161.792H458.752v-61.44h436.224c34.816 0 63.488 28.672 63.488 63.488v159.744z" fill="#8a8a8a" p-id="2534"></path></svg>