<?xml version="1.0" standalone="no"?><!DOCTYPE svg PUBLIC "-//W3C//DTD SVG 1.1//EN" "http://www.w3.org/Graphics/SVG/1.1/DTD/svg11.dtd"><svg t="1630336431131" class="icon" viewBox="0 0 1024 1024" version="1.1" xmlns="http://www.w3.org/2000/svg" p-id="14543" xmlns:xlink="http://www.w3.org/1999/xlink" width="200" height="200"><defs><style type="text/css"></style></defs><path d="M966.656 502.857a34.158 34.158 0 1 0 46.446-50.03L535.259 9.143a34.158 34.158 0 0 0-46.518 0L10.97 452.754a34.158 34.158 0 0 0 46.446 50.03L512 80.75l454.656 422.107zM580.242 682.642V921.6c0 18.87 15.36 34.158 34.158 34.158h238.958a34.158 34.158 0 0 0 34.084-34.158V512a34.158 34.158 0 0 0-68.242 0v375.442H648.558V648.558A34.158 34.158 0 0 0 614.4 614.4H406.747a34.158 34.158 0 0 0-34.084 34.158v238.884H204.8V512a34.158 34.158 0 0 0-68.242 0v409.6c0 18.87 15.287 34.158 34.084 34.158h236.105a34.158 34.158 0 0 0 34.158-34.158V682.642h139.337z m273.116-546.084v102.4a34.158 34.158 0 0 0 68.242 0V102.4a34.158 34.158 0 0 0-34.158-34.158H716.8a34.158 34.158 0 0 0 0 68.316h136.558z" p-id="14544" fill="#8a8a8a"></path></svg>